<svg width="262" height="81" viewBox="0 0 262 81" fill="none" xmlns="http://www.w3.org/2000/svg">
<rect x="13.5" y="8.5" width="57" height="41" rx="4.5" fill="white" stroke="#22223B" stroke-width="3"/>
<path d="M24.8613 18.9872H60.0886" stroke="#22223B" stroke-width="3" stroke-linecap="round"/>
<rect x="25.9214" y="4.5" width="1" height="8" rx="0.5" fill="#22223B" stroke="#22223B"/>
<rect x="58.0491" y="4.5" width="1" height="8" rx="0.5" fill="#22223B" stroke="#22223B"/>
<path d="M39.2 26.82H43.92V41H40.88V29.58H39.2V26.82Z" fill="#22223B"/>
<path d="M4.62548 62.8513L2 68.0752C22.3861 57.5112 37.1094 63.5727 42 67.9743C53.4903 57.9908 73.4028 63.9154 81.8456 68.0752L79.2201 62.8513C70.9318 59.2235 51.0251 55.7452 42.5 64.4518H41.5C32.9749 55.7452 12.9138 59.2235 4.62548 62.8513Z" fill="#22223B" stroke="#22223B"/>
<path d="M2 70.6474L3.23552 71.2278C12.1931 66.7445 30.1081 61.9875 42 72C53.4903 62.0165 72.3217 67.068 80.7645 71.2278L82 70.6474C73.7117 67.0197 54.973 60.3837 42 70.9936V70.9767C28.2548 59.6751 9.56757 66.9212 2 70.6474Z" fill="#22223B" stroke="#22223B"/>
<path d="M119.32 3.64L131.16 32H124.6L122.04 25.92H110L107.48 32H100.88L112.72 3.64H119.32ZM119.76 20.4L116.04 11.48L112.32 20.4H119.76ZM169.767 3.64H175.487V32H169.447V13.28L162.687 22.76H157.847L151.007 13.56V32H144.927V3.64H150.687L160.287 16.72L169.767 3.64ZM188.943 11.6C190.356 11.6 191.689 11.88 192.943 12.44C194.196 12.9733 195.289 13.72 196.223 14.68C197.156 15.6133 197.889 16.72 198.423 18C198.983 19.2533 199.263 20.6 199.263 22.04C199.263 23.48 198.983 24.84 198.423 26.12C197.889 27.3733 197.156 28.48 196.223 29.44C195.289 30.3733 194.196 31.12 192.943 31.68C191.689 32.2133 190.356 32.48 188.943 32.48C187.503 32.48 186.156 32.2133 184.903 31.68C183.649 31.12 182.556 30.3733 181.623 29.44C180.689 28.48 179.943 27.3733 179.383 26.12C178.849 24.84 178.583 23.48 178.583 22.04C178.583 20.6 178.849 19.2533 179.383 18C179.943 16.72 180.689 15.6133 181.623 14.68C182.556 13.72 183.649 12.9733 184.903 12.44C186.156 11.88 187.503 11.6 188.943 11.6ZM188.943 27.64C189.609 27.64 190.223 27.5067 190.783 27.24C191.369 26.9733 191.876 26.6133 192.303 26.16C192.756 25.68 193.103 25.12 193.343 24.48C193.609 23.8133 193.743 23.08 193.743 22.28C193.743 21.48 193.609 20.7333 193.343 20.04C193.103 19.3467 192.756 18.7467 192.303 18.24C191.876 17.7067 191.369 17.2933 190.783 17C190.223 16.68 189.609 16.52 188.943 16.52C188.276 16.52 187.649 16.68 187.063 17C186.476 17.2933 185.956 17.7067 185.503 18.24C185.076 18.7467 184.729 19.3467 184.463 20.04C184.223 20.7333 184.103 21.48 184.103 22.28C184.103 23.08 184.223 23.8133 184.463 24.48C184.729 25.12 185.076 25.68 185.503 26.16C185.956 26.6133 186.476 26.9733 187.063 27.24C187.649 27.5067 188.276 27.64 188.943 27.64ZM212.472 12.16C213.218 12.16 214.045 12.2667 214.952 12.48C215.858 12.6933 216.712 13.0933 217.512 13.68C218.312 14.2667 218.978 15.08 219.512 16.12C220.072 17.16 220.352 18.5067 220.352 20.16V32H214.792V20.36C214.792 19.7467 214.685 19.2267 214.472 18.8C214.285 18.3733 214.018 18.04 213.672 17.8C213.352 17.5333 212.978 17.3467 212.552 17.24C212.125 17.1067 211.698 17.04 211.272 17.04C210.925 17.04 210.538 17.1067 210.112 17.24C209.712 17.3467 209.325 17.5333 208.952 17.8C208.605 18.0667 208.312 18.4133 208.072 18.84C207.832 19.2667 207.712 19.7733 207.712 20.36V32H202.192V12.16H206.912L207.712 13.68C208.352 13.2267 209.072 12.8667 209.872 12.6C210.672 12.3067 211.538 12.16 212.472 12.16ZM231.112 24.88C231.112 25.8133 231.392 26.5333 231.952 27.04C232.539 27.5467 233.299 27.8 234.232 27.8C234.979 27.8 235.726 27.6533 236.472 27.36V32C235.806 32.2133 235.099 32.3867 234.352 32.52C233.606 32.68 232.859 32.76 232.112 32.76C231.259 32.76 230.446 32.6533 229.672 32.44C228.899 32.2267 228.206 31.8667 227.592 31.36C226.979 30.8267 226.486 30.1333 226.112 29.28C225.766 28.4 225.592 27.32 225.592 26.04V17.08H222.752V13.36L225.592 12.16V7.72H231.112V12.16H236.472V17.08H231.112V24.88ZM250.145 11.6C251.451 11.6 252.665 11.88 253.785 12.44C254.931 12.9733 255.918 13.72 256.745 14.68C257.571 15.6133 258.211 16.72 258.665 18C259.145 19.2533 259.385 20.6 259.385 22.04V32H253.985V28.36C253.985 27.3467 253.985 26.3067 253.985 25.24C254.011 24.1467 254.025 23.2133 254.025 22.44C254.025 21.6933 253.905 20.96 253.665 20.24C253.425 19.52 253.091 18.8933 252.665 18.36C252.238 17.8 251.731 17.36 251.145 17.04C250.585 16.6933 249.985 16.52 249.345 16.52C248.731 16.52 248.145 16.64 247.585 16.88C247.025 17.0933 246.531 17.4267 246.105 17.88C245.678 18.3067 245.331 18.8533 245.065 19.52C244.825 20.1867 244.705 20.9733 244.705 21.88V32H239.145V2.8H244.705V13.68C245.398 13.0133 246.185 12.5067 247.065 12.16C247.971 11.7867 248.998 11.6 250.145 11.6ZM107.96 66.52H119.6V72H101.88V43.64H107.96V66.52ZM131.6 51.6C133.093 51.6 134.453 51.9067 135.68 52.52C136.907 53.1067 137.96 53.8933 138.84 54.88C139.72 55.84 140.4 56.96 140.88 58.24C141.36 59.4933 141.6 60.7867 141.6 62.12C141.6 62.92 141.493 63.7733 141.28 64.68H127.12C127.653 65.5867 128.413 66.36 129.4 67C130.387 67.6133 131.453 67.92 132.6 67.92C133.747 67.92 134.747 67.8267 135.6 67.64C136.48 67.4533 137.307 67.2133 138.08 66.92L139.92 70.32C138.933 71.0133 137.8 71.5467 136.52 71.92C135.267 72.2933 133.92 72.48 132.48 72.48C130.907 72.48 129.44 72.2133 128.08 71.68C126.72 71.12 125.533 70.3733 124.52 69.44C123.507 68.5067 122.707 67.4 122.12 66.12C121.533 64.84 121.24 63.48 121.24 62.04C121.24 60.6267 121.507 59.2933 122.04 58.04C122.573 56.76 123.307 55.6533 124.24 54.72C125.2 53.76 126.307 53 127.56 52.44C128.813 51.88 130.16 51.6 131.6 51.6ZM136.12 60.4C135.8 59.2533 135.227 58.32 134.4 57.6C133.573 56.88 132.64 56.52 131.6 56.52C130.533 56.52 129.56 56.88 128.68 57.6C127.827 58.32 127.24 59.2533 126.92 60.4H136.12ZM166.349 52.16V72H161.589L161.029 69.88C160.256 70.92 159.322 71.6133 158.229 71.96C157.162 72.3067 156.042 72.48 154.869 72.48C153.456 72.48 152.149 72.2133 150.949 71.68C149.776 71.12 148.749 70.3733 147.869 69.44C146.989 68.48 146.296 67.3733 145.789 66.12C145.309 64.84 145.069 63.48 145.069 62.04C145.069 60.6 145.309 59.2533 145.789 58C146.296 56.72 146.989 55.6133 147.869 54.68C148.749 53.72 149.776 52.9733 150.949 52.44C152.149 51.88 153.456 51.6 154.869 51.6C156.149 51.6 157.322 51.8 158.389 52.2C159.456 52.6 160.336 53.24 161.029 54.12L161.589 52.16H166.349ZM160.829 62.12C160.829 61.08 160.682 60.2133 160.389 59.52C160.122 58.8 159.749 58.2267 159.269 57.8C158.816 57.3467 158.269 57.0267 157.629 56.84C157.016 56.6267 156.349 56.52 155.629 56.52C154.909 56.52 154.229 56.6667 153.589 56.96C152.976 57.2533 152.429 57.6533 151.949 58.16C151.469 58.64 151.096 59.2267 150.829 59.92C150.562 60.5867 150.429 61.2933 150.429 62.04C150.429 62.8133 150.562 63.5333 150.829 64.2C151.096 64.8667 151.469 65.4533 151.949 65.96C152.429 66.44 152.976 66.8267 153.589 67.12C154.229 67.4133 154.909 67.56 155.629 67.56C157.069 67.56 158.282 67.12 159.269 66.24C160.282 65.3333 160.802 63.96 160.829 62.12ZM175.365 54.92C175.632 54.4933 175.938 54.0933 176.285 53.72C176.632 53.32 177.045 52.9733 177.525 52.68C178.005 52.36 178.552 52.1067 179.165 51.92C179.778 51.7333 180.472 51.64 181.245 51.64C182.152 51.64 183.205 51.8 184.405 52.12L183.885 57.04C183.592 56.9867 183.298 56.92 183.005 56.84C182.765 56.7867 182.498 56.7467 182.205 56.72C181.912 56.6667 181.645 56.64 181.405 56.64C180.552 56.64 179.752 56.76 179.005 57C178.285 57.24 177.658 57.5733 177.125 58C176.592 58.4267 176.165 58.9467 175.845 59.56C175.525 60.1467 175.365 60.7867 175.365 61.48V72H169.845V52.16H174.845L175.365 54.92ZM196.729 52.16C197.476 52.16 198.303 52.2667 199.209 52.48C200.116 52.6933 200.969 53.0933 201.769 53.68C202.569 54.2667 203.236 55.08 203.769 56.12C204.329 57.16 204.609 58.5067 204.609 60.16V72H199.049V60.36C199.049 59.7467 198.943 59.2267 198.729 58.8C198.543 58.3733 198.276 58.04 197.929 57.8C197.609 57.5333 197.236 57.3467 196.809 57.24C196.383 57.1067 195.956 57.04 195.529 57.04C195.183 57.04 194.796 57.1067 194.369 57.24C193.969 57.3467 193.583 57.5333 193.209 57.8C192.863 58.0667 192.569 58.4133 192.329 58.84C192.089 59.2667 191.969 59.7733 191.969 60.36V72H186.449V52.16H191.169L191.969 53.68C192.609 53.2267 193.329 52.8667 194.129 52.6C194.929 52.3067 195.796 52.16 196.729 52.16ZM214.05 72H208.53V52.16H214.05V72ZM211.29 49.44C210.437 49.44 209.717 49.1467 209.13 48.56C208.543 47.9733 208.25 47.2533 208.25 46.4C208.25 45.5467 208.543 44.8267 209.13 44.24C209.717 43.6267 210.437 43.32 211.29 43.32C212.143 43.32 212.863 43.6267 213.45 44.24C214.037 44.8267 214.33 45.5467 214.33 46.4C214.33 47.2533 214.037 47.9733 213.45 48.56C212.863 49.1467 212.143 49.44 211.29 49.44ZM228.487 52.16C229.234 52.16 230.061 52.2667 230.967 52.48C231.874 52.6933 232.727 53.0933 233.527 53.68C234.327 54.2667 234.994 55.08 235.527 56.12C236.087 57.16 236.367 58.5067 236.367 60.16V72H230.807V60.36C230.807 59.7467 230.701 59.2267 230.487 58.8C230.301 58.3733 230.034 58.04 229.687 57.8C229.367 57.5333 228.994 57.3467 228.567 57.24C228.141 57.1067 227.714 57.04 227.287 57.04C226.941 57.04 226.554 57.1067 226.127 57.24C225.727 57.3467 225.341 57.5333 224.967 57.8C224.621 58.0667 224.327 58.4133 224.087 58.84C223.847 59.2667 223.727 59.7733 223.727 60.36V72H218.207V52.16H222.927L223.727 53.68C224.367 53.2267 225.087 52.8667 225.887 52.6C226.687 52.3067 227.554 52.16 228.487 52.16ZM255.368 52.16H260.088V65.28C260.088 66.8 260.061 68.16 260.008 69.36C259.981 70.5333 259.888 71.5867 259.728 72.52C259.568 73.48 259.301 74.3333 258.928 75.08C258.581 75.8267 258.088 76.52 257.448 77.16C256.274 78.3067 254.954 79.0933 253.488 79.52C252.048 79.9467 250.528 80.16 248.928 80.16C247.568 80.16 246.288 80 245.088 79.68C243.888 79.36 242.808 78.92 241.848 78.36V73.2C242.088 73.5733 242.421 73.9067 242.848 74.2C243.301 74.4933 243.808 74.7467 244.368 74.96C244.954 75.1733 245.568 75.3333 246.208 75.44C246.874 75.5733 247.541 75.64 248.208 75.64C249.088 75.64 249.914 75.52 250.688 75.28C251.461 75.0667 252.128 74.7067 252.688 74.2C253.274 73.6933 253.728 73.0533 254.048 72.28C254.394 71.5333 254.568 70.6133 254.568 69.52V69.12C253.794 69.8133 252.901 70.3733 251.888 70.8C250.874 71.2 249.768 71.4 248.568 71.4C247.234 71.4 245.994 71.1467 244.848 70.64C243.728 70.1067 242.754 69.4 241.928 68.52C241.101 67.6133 240.448 66.56 239.968 65.36C239.514 64.1333 239.288 62.84 239.288 61.48C239.288 60.12 239.514 58.84 239.968 57.64C240.448 56.44 241.101 55.4 241.928 54.52C242.754 53.6133 243.728 52.9067 244.848 52.4C245.994 51.8667 247.234 51.6 248.568 51.6C249.821 51.6 250.954 51.7733 251.968 52.12C252.981 52.44 253.848 52.96 254.568 53.68L255.368 52.16ZM249.688 66.48C250.541 66.48 251.274 66.3333 251.888 66.04C252.501 65.72 253.008 65.32 253.408 64.84C253.808 64.36 254.101 63.8267 254.288 63.24C254.474 62.6533 254.568 62.08 254.568 61.52C254.568 60.9067 254.461 60.3067 254.248 59.72C254.061 59.1067 253.768 58.5733 253.368 58.12C252.968 57.64 252.461 57.2533 251.848 56.96C251.234 56.6667 250.514 56.52 249.688 56.52C248.994 56.52 248.354 56.6533 247.768 56.92C247.181 57.1867 246.661 57.5467 246.208 58C245.781 58.4533 245.434 58.9867 245.168 59.6C244.928 60.1867 244.808 60.8267 244.808 61.52C244.808 62.2133 244.928 62.8667 245.168 63.48C245.434 64.0667 245.781 64.5867 246.208 65.04C246.661 65.4933 247.181 65.8533 247.768 66.12C248.354 66.36 248.994 66.48 249.688 66.48Z" fill="#22223B"/>
</svg>
