<svg width="72" height="72" viewBox="0 0 72 72" fill="none" xmlns="http://www.w3.org/2000/svg">
<rect x="13.4163" y="12.8749" width="44.4968" height="31.831" rx="4.5" fill="white" stroke="#22223B" stroke-width="3"/>
<path d="M22.0977 20.864H49.984" stroke="#22223B" stroke-width="3" stroke-linecap="round"/>
<rect x="22.9366" y="9.39581" width="0.791615" height="6.33291" rx="0.395807" fill="white" stroke="#22223B" stroke-width="0.791615"/>
<rect x="48.3692" y="9.39581" width="0.791615" height="6.33291" rx="0.395807" fill="white" stroke="#22223B" stroke-width="0.791615"/>
<path d="M6.07837 56.7576L4 60.893C20.1379 52.5304 31.7931 57.3287 35.6645 60.8131C44.7605 52.91 60.5234 57.6 67.2068 60.893L65.1284 56.7576C58.5673 53.8859 42.8089 51.1324 36.0603 58.0246H35.2687C28.5202 51.1324 12.6395 53.8859 6.07837 56.7576Z" fill="#22223B" stroke="#22223B"/>
<path d="M4 62.9292L4.97806 63.3886C12.069 59.8396 26.2508 56.0738 35.6645 63.9999C44.7604 56.0968 59.6676 60.0957 66.351 63.3886L67.3291 62.9291C60.768 60.0574 45.9341 54.8043 35.6645 63.2032V63.1899C24.7837 54.2433 9.99059 59.9794 4 62.9292Z" fill="#22223B" stroke="#22223B"/>
<path d="M23.728 26.656L28.464 38H25.84L24.816 35.568H20L18.992 38H16.352L21.088 26.656H23.728ZM23.904 33.36L22.416 29.792L20.928 33.36H23.904ZM41.1005 26.656H43.3885V38H40.9725V30.512L38.2685 34.304H36.3325L33.5965 30.624V38H31.1645V26.656H33.4685L37.3085 31.888L41.1005 26.656ZM48.9309 35.808H53.5869V38H46.4989V26.656H48.9309V35.808Z" fill="#22223B"/>
</svg>
